<svg xmlns="http://www.w3.org/2000/svg" xmlns:xlink="http://www.w3.org/1999/xlink" xmlns:lucid="lucid" width="1240" height="1000"><g transform="translate(0 0)" lucid:page-tab-id="0_0"><path d="M490 26c0-3.3 2.7-6 6-6h248c3.3 0 6 2.7 6 6v68c0 3.3-2.7 6-6 6H496c-3.3 0-6-2.7-6-6z" stroke="#5e5e5e" stroke-width="3" fill="#fff"/><use xlink:href="#a" transform="matrix(1,0,0,1,495,25) translate(102.1604938271605 39.65277777777778)"/><path d="M140 146c0-3.3 2.7-6 6-6h248c3.3 0 6 2.7 6 6v68c0 3.3-2.7 6-6 6H146c-3.3 0-6-2.7-6-6z" stroke="#5e5e5e" stroke-width="3" fill="#fff"/><use xlink:href="#b" transform="matrix(1,0,0,1,145,145) translate(91.66666666666667 39.65277777777778)"/><path d="M840 146c0-3.3 2.7-6 6-6h248c3.3 0 6 2.7 6 6v68c0 3.3-2.7 6-6 6H846c-3.3 0-6-2.7-6-6z" stroke="#5e5e5e" stroke-width="3" fill="#fff"/><use xlink:href="#c" transform="matrix(1,0,0,1,845,145) translate(92.31481481481481 39.65277777777778)"/><path d="M20 326c0-3.3 2.7-6 6-6h248c3.3 0 6 2.7 6 6v68c0 3.3-2.7 6-6 6H26c-3.3 0-6-2.7-6-6z" stroke="#5e5e5e" stroke-width="3" fill="#fff"/><use xlink:href="#d" transform="matrix(1,0,0,1,25,325) translate(97.8395061728395 39.65277777777778)"/><path d="M160 726c0-3.3 2.7-6 6-6h248c3.3 0 6 2.7 6 6v68c0 3.3-2.7 6-6 6H166c-3.3 0-6-2.7-6-6z" stroke="#5e5e5e" stroke-width="3" fill="#fff"/><use xlink:href="#e" transform="matrix(1,0,0,1,165,725) translate(96.66666666666666 39.65277777777778)"/><path d="M960 326c0-3.3 2.7-6 6-6h248c3.3 0 6 2.7 6 6v68c0 3.3-2.7 6-6 6H966c-3.3 0-6-2.7-6-6z" stroke="#5e5e5e" stroke-width="3" fill="#fff"/><use xlink:href="#f" transform="matrix(1,0,0,1,965,325) translate(93.54938271604938 39.65277777777778)"/><path d="M20 518.5c0-3.33 2.7-6 6-6h248c3.3 0 6 2.67 6 6v68c0 3.3-2.7 6-6 6H26c-3.3 0-6-2.7-6-6z" stroke="#5e5e5e" stroke-width="3" fill="#fff"/><use xlink:href="#g" transform="matrix(1,0,0,1,25,517.4877004503628) translate(60.24691358024691 39.65277777777778)"/><use xlink:href="#h" transform="matrix(1,0,0,1,25,517.4877004503628) translate(125.61728395061728 39.65277777777778)"/><path d="M820 726c0-3.3 2.7-6 6-6h248c3.3 0 6 2.7 6 6v68c0 3.3-2.7 6-6 6H826c-3.3 0-6-2.7-6-6z" stroke="#5e5e5e" stroke-width="3" fill="#fff"/><use xlink:href="#i" transform="matrix(1,0,0,1,825,725) translate(87.37654320987654 39.65277777777778)"/><path d="M960 518.5c0-3.33 2.7-6 6-6h248c3.3 0 6 2.67 6 6v68c0 3.3-2.7 6-6 6H966c-3.3 0-6-2.7-6-6z" stroke="#5e5e5e" stroke-width="3" fill="#fff"/><use xlink:href="#j" transform="matrix(1,0,0,1,965,517.4877004503628) translate(42.65432098765433 39.65277777777778)"/><use xlink:href="#k" transform="matrix(1,0,0,1,965,517.4877004503628) translate(119.81481481481481 39.65277777777778)"/><path d="M620 102.5V320" stroke="#5e5e5e" stroke-width="2" fill="none"/><path d="M621 102.53h-2v-1.03h2zM621 321h-2v-1.04h2z" fill="#5e5e5e"/><path d="M752.5 60.02l.93.06.93.1.9.13.9.18.9.2.9.26.87.3.9.32.88.37.9.42.9.48.93.53.95.6.97.67 1 .76 1.03.85 1.08.97 1.13 1.1 1.2 1.28 1.26 1.48 1.36 1.7 1.47 2.05 1.6 2.43 1.82 3 2.06 3.76 2.47 4.97 3.17 7.15 5.4 13.75 12.76 33.95 3.17 7.16 2.47 4.98 2.06 3.77 1.8 3 1.63 2.42 1.48 2.04 1.36 1.72 1.27 1.48 1.2 1.27 1.14 1.1 1.08.98 1.03.86 1 .77.97.67.95.6.92.53.9.48.9.42.88.37.9.33.87.3.9.24.88.22.9.17.9.12.94.1.93.06" stroke="#5e5e5e" stroke-width="2" fill="none"/><path d="M752.55 59.02l-.04 2-1-.02v-2zM838.5 179v2h-1.03v-2z" fill="#5e5e5e"/><path d="M270.05 222.5l.03.32.07.43.08.44.1.43.13.44.14.45.17.46.2.47.23.47.25.5.3.5.33.53.38.55.44.57.5.6.57.64.67.7.77.7.9.8 1.07.83 1.27.92 1.52 1 1.85 1.13 2.3 1.25 2.86 1.42 3.67 1.63 4.84 1.9 6.56 2.3 9.32 2.8 14.12 3.6 24 5.03 59.72 9.82 130.94 20.06 24 5.04 14.1 3.6 9.33 2.8 6.56 2.28 4.84 1.9 3.67 1.64 2.87 1.4 2.3 1.27 1.84 1.13 1.52 1 1.27.92 1.06.85.9.77.76.73.67.67.57.64.5.62.44.57.38.54.33.53.3.5.25.5.23.47.2.47.17.47.14.45.13.44.1.44.08.43.07.44.03.32" stroke="#5e5e5e" stroke-width="2" fill="none"/><path d="M271.02 222.5l-2 .05-.02-1.05h2zM621 321h-2v-1.04h2z" fill="#5e5e5e"/><path d="M402.5 179.98l.93-.06.93-.1.9-.13.9-.18.9-.2.9-.26.87-.3.9-.32.88-.37.9-.42.9-.48.93-.53.95-.6.97-.67 1-.76 1.03-.85 1.08-.97 1.13-1.1 1.2-1.28 1.26-1.48 1.36-1.7 1.47-2.05 1.6-2.43 1.82-3 2.06-3.76 2.47-4.97 3.17-7.15 5.4-13.75 12.76-33.95 3.17-7.16 2.47-4.98 2.06-3.77 1.8-3 1.63-2.42 1.48-2.04 1.36-1.72 1.27-1.48 1.2-1.27 1.14-1.1 1.08-.98 1.03-.86 1-.77.97-.67.95-.6.92-.53.9-.48.9-.42.88-.37.9-.33.87-.3.9-.24.88-.22.9-.17.9-.12.94-.1.93-.06" stroke="#5e5e5e" stroke-width="2" fill="none"/><path d="M402.55 180.98l-1.05.02v-2l1-.02zM488.5 61h-1.03v-2h1.03z" fill="#5e5e5e"/><path d="M290.03 717.5l.04-.7.1-.83.1-.83.17-.83.2-.82.23-.83.27-.84.32-.84.36-.87.4-.9.48-.9.54-.9.6-.97.7-1 .78-1.02.9-1.07 1-1.13 1.2-1.2 1.34-1.27 1.58-1.36 1.85-1.46 2.17-1.58 2.6-1.73 3.17-1.92 3.88-2.13 4.86-2.4 6.2-2.77 8.22-3.24 11.32-3.92 16.73-5.02 28.74-7.3 156.55-34.6 16.73-5.03 11.32-3.93 8.2-3.24 6.22-2.76 4.86-2.4 3.88-2.13 3.16-1.9 2.6-1.74 2.2-1.58 1.84-1.46 1.58-1.36 1.35-1.27 1.17-1.2 1.02-1.14.88-1.08.78-1.03.7-1 .6-.95.54-.93.47-.9.4-.88.37-.87.32-.85.27-.84.24-.83.2-.82.15-.83.12-.83.1-.83.03-.7" stroke="#5e5e5e" stroke-width="2" fill="none"/><path d="M291.02 717.5l-.02 1h-2l.02-1.05zM621 585h-2v-1h2z" fill="#5e5e5e"/><path d="M957.5 360.02l-5.96.12-6.4.4-5.93.63-5.55.82-5.24 1-5 1.16-4.78 1.34-4.65 1.5-4.54 1.7-4.5 1.88-4.48 2.12-4.56 2.38-4.7 2.7-4.97 3.16-5.45 3.8-6.4 4.87-9.1 7.57-29.66 25.7-6.4 4.88-5.45 3.8-4.97 3.15-4.7 2.7-4.55 2.4-4.48 2.1-4.5 1.9-4.54 1.68-4.65 1.5-4.8 1.35-5 1.17-5.23 1-5.56.82-5.94.62-6.4.4-5.96.13" stroke="#5e5e5e" stroke-width="2" fill="none"/><path d="M958.5 361l-1 .02-.05-2 1.05-.02zM752.53 453.5h-1.03v-2h1.03z" fill="#5e5e5e"/><path d="M969.95 222.5l-.03.32-.07.43-.08.44-.1.43-.13.44-.14.45-.17.46-.2.47-.23.47-.25.5-.3.5-.33.53-.38.55-.44.57-.5.6-.57.64-.67.7-.77.7-.9.8-1.07.83-1.27.92-1.52 1-1.85 1.13-2.3 1.25-2.86 1.42-3.67 1.63-4.84 1.9-6.56 2.3-9.32 2.8-14.12 3.6-24 5.03-59.72 9.82-130.94 20.06-24 5.04-14.1 3.6-9.33 2.8-6.56 2.28-4.84 1.9-3.67 1.64-2.87 1.4-2.3 1.27-1.84 1.13-1.52 1-1.27.92-1.06.85-.9.77-.76.73-.67.67-.57.64-.5.62-.44.57-.38.54-.33.53-.3.5-.25.5-.23.47-.2.47-.17.47-.14.45-.13.44-.1.44-.08.43-.07.44-.03.32" stroke="#5e5e5e" stroke-width="2" fill="none"/><path d="M970.98 222.55l-2-.04.02-1h2zM621 319.96V321h-2v-1.04z" fill="#5e5e5e"/><path d="M282.5 552.47l5.46-.12 5.97-.37 5.57-.58 5.24-.78 4.97-.94 4.75-1.12 4.56-1.27 4.44-1.45 4.33-1.6 4.27-1.8 4.26-2 4.3-2.25 4.38-2.54 4.57-2.9 4.87-3.4 5.4-4.1 6.42-5.3 9.46-8.57 28.06-26.37 6.43-5.33 5.38-4.1 4.87-3.4 4.57-2.9 4.4-2.52 4.28-2.25 4.26-2 4.27-1.8 4.33-1.6 4.43-1.45 4.55-1.27 4.74-1.1 4.96-.95 5.24-.77 5.57-.58 5.97-.38 5.46-.1" stroke="#5e5e5e" stroke-width="2" fill="none"/><path d="M282.55 553.47l-1.05.02v-2l1-.03zM488.5 453.5h-1.03v-2h1.03z" fill="#5e5e5e"/><path d="M949.97 717.5l-.04-.7-.1-.83-.1-.83-.17-.83-.2-.82-.23-.83-.27-.84-.32-.84-.36-.87-.4-.9-.48-.9-.54-.9-.6-.97-.7-1-.78-1.02-.9-1.07-1-1.13-1.2-1.2-1.34-1.27-1.58-1.36-1.85-1.46-2.17-1.58-2.6-1.73-3.17-1.92-3.88-2.13-4.86-2.4-6.2-2.77-8.22-3.24-11.32-3.92-16.73-5.02-28.74-7.3-156.55-34.6-16.73-5.03-11.32-3.93-8.2-3.24-6.22-2.76-4.86-2.4-3.88-2.13-3.16-1.9-2.6-1.74-2.2-1.58-1.84-1.46-1.58-1.36-1.35-1.27-1.17-1.2-1.02-1.14-.88-1.08-.78-1.03-.7-1-.6-.95-.54-.93-.47-.9-.4-.88-.37-.87-.32-.85-.27-.84-.24-.83-.2-.82-.15-.83-.12-.83-.1-.83-.03-.7" stroke="#5e5e5e" stroke-width="2" fill="none"/><path d="M951 718.5h-2l-.02-1 2-.05zM621 585h-2v-1h2z" fill="#5e5e5e"/><path d="M957.5 552.47l-5.46-.12-5.97-.37-5.57-.58-5.24-.78-4.97-.94-4.75-1.12-4.56-1.27-4.44-1.45-4.33-1.6-4.27-1.8-4.26-2-4.3-2.25-4.38-2.54-4.57-2.9-4.87-3.4-5.4-4.1-6.42-5.3-9.46-8.57-28.06-26.37-6.43-5.33-5.38-4.1-4.87-3.4-4.57-2.9-4.4-2.52-4.28-2.25-4.26-2-4.27-1.8-4.33-1.6-4.43-1.45-4.55-1.27-4.74-1.1-4.96-.95-5.24-.77-5.57-.58-5.97-.38-5.46-.1" stroke="#5e5e5e" stroke-width="2" fill="none"/><path d="M958.5 551.5v2l-1.05-.03.04-2zM752.53 451.5v2h-1.03v-2z" fill="#5e5e5e"/><path d="M282.5 360.02l5.96.12 6.4.4 5.93.63 5.55.82 5.24 1 5 1.16 4.78 1.34 4.65 1.5 4.54 1.7 4.5 1.88 4.48 2.12 4.56 2.38 4.7 2.7 4.97 3.16 5.45 3.8 6.4 4.87 9.1 7.57 29.66 25.7 6.4 4.88 5.45 3.8 4.97 3.15 4.7 2.7 4.55 2.4 4.48 2.1 4.5 1.9 4.54 1.68 4.65 1.5 4.8 1.35 5 1.17 5.23 1 5.56.82 5.94.62 6.4.4 5.96.13" stroke="#5e5e5e" stroke-width="2" fill="none"/><path d="M282.55 359.02l-.04 2-1-.02v-2zM488.5 451.5v2h-1.03v-2z" fill="#5e5e5e"/><path d="M490 328.5c0-3.33 2.7-6 6-6h248c3.3 0 6 2.67 6 6v248c0 3.3-2.7 6-6 6H496c-3.3 0-6-2.7-6-6z" stroke="#5e5e5e" stroke-width="3" fill="#fff"/><use xlink:href="#l" transform="matrix(1,0,0,1,495,327.487700450363) translate(51.6358024691358 17.77777777777778)"/><path d="M620.14 405.17v94.64" stroke="#5e5e5e" fill="#fff"/><path d="M602.92 441.15h34.16v22.82h-34.16z" stroke="#5e5e5e" fill="#aefe7d"/><path d="M602.92 382.5h34.16v22.8h-34.16zM602.92 499.67h34.16v22.82h-34.16zM655.84 414.83H690v22.68h-34.16zM655.84 468.3H690v22.83h-34.16zM550 414.4h34.16v22.83H550zM550 468.03h34.16v22.68H550zM636.66 441.3l19.18-15.83M603.34 441.3l-19.18-15.83M584.16 479.65l19.18-15.82M656.12 479.93l-19.18-15.82" stroke="#5e5e5e" fill="#fff"/><use xlink:href="#m" transform="matrix(1,0,0,1,550,527.487700450363) translate(42.25308641975309 24.444444444444443)"/><path d="M320 906c0-3.3 2.7-6 6-6h248c3.3 0 6 2.7 6 6v68c0 3.3-2.7 6-6 6H326c-3.3 0-6-2.7-6-6z" stroke="#5e5e5e" stroke-width="3" fill="#fff"/><use xlink:href="#n" transform="matrix(1,0,0,1,325,905) translate(66.08024691358024 39.65277777777778)"/><path d="M660 906c0-3.3 2.7-6 6-6h248c3.3 0 6 2.7 6 6v68c0 3.3-2.7 6-6 6H666c-3.3 0-6-2.7-6-6z" stroke="#5e5e5e" stroke-width="3" fill="#fff"/><use xlink:href="#o" transform="matrix(1,0,0,1,665.0000000000001,905) translate(92.9320987654321 39.65277777777778)"/><path d="M450.02 897.5l.16-7.8.52-8.22.8-7.72 1.08-7.3 1.33-6.95 1.57-6.67 1.8-6.44 2.04-6.28 2.3-6.13 2.54-6.07 2.83-6.02 3.16-6.03 3.54-6.13 4-6.3 4.56-6.55 5.3-7 6.4-7.7 8.07-8.96 11.7-11.9 54.3-52.1 8.08-8.95 6.38-7.7 5.3-7 4.57-6.56 4-6.3 3.54-6.12 3.16-6.05 2.83-6.02 2.55-6.05 2.3-6.14 2.03-6.26 1.8-6.45 1.56-6.67 1.32-6.95 1.07-7.3.8-7.72.52-8.2.16-7.8" stroke="#5e5e5e" stroke-width="2" fill="none"/><path d="M451.02 897.5l-.02 1h-2l.02-1.05zM621 585h-2v-1h2z" fill="#5e5e5e"/><path d="M789.98 897.5l-.16-7.8-.52-8.22-.8-7.72-1.08-7.3-1.33-6.95-1.57-6.67-1.8-6.44-2.04-6.28-2.3-6.13-2.54-6.07-2.83-6.02-3.16-6.03-3.54-6.13-4-6.3-4.56-6.55-5.3-7-6.4-7.7-8.07-8.96-11.7-11.9-54.3-52.1-8.08-8.95-6.38-7.7-5.3-7-4.57-6.56-4-6.3-3.54-6.12-3.16-6.05-2.83-6.02-2.55-6.05-2.3-6.14-2.03-6.26-1.8-6.45-1.56-6.67-1.32-6.95-1.07-7.3-.8-7.72-.52-8.2-.16-7.8" stroke="#5e5e5e" stroke-width="2" fill="none"/><path d="M791 898.5h-2l-.02-1 2-.05zM621 585h-2v-1h2z" fill="#5e5e5e"/><defs><path fill="#333" d="M205 0l-28-72H64L36 0H1l101-248h38L239 0h-34zm-38-99l-47-123c-12 45-31 82-46 123h93" id="p"/><path fill="#333" d="M84 4C-5 8 30-112 23-190h32v120c0 31 7 50 39 49 72-2 45-101 50-169h31l1 190h-30c-1-10 1-25-2-33-11 22-28 36-60 37" id="q"/><path fill="#333" d="M59-47c-2 24 18 29 38 22v24C64 9 27 4 27-40v-127H5v-23h24l9-43h21v43h35v23H59v120" id="r"/><path fill="#333" d="M106-169C34-169 62-67 57 0H25v-261h32l-1 103c12-21 28-36 61-36 89 0 53 116 60 194h-32v-121c2-32-8-49-39-48" id="s"/><g id="a"><use transform="matrix(0.06172839506172839,0,0,0.06172839506172839,0,0)" xlink:href="#p"/><use transform="matrix(0.06172839506172839,0,0,0.06172839506172839,14.814814814814813,0)" xlink:href="#q"/><use transform="matrix(0.06172839506172839,0,0,0.06172839506172839,27.160493827160494,0)" xlink:href="#r"/><use transform="matrix(0.06172839506172839,0,0,0.06172839506172839,33.333333333333336,0)" xlink:href="#s"/></g><path fill="#333" d="M140-251c81 0 123 46 123 126C263-53 228-8 163 1c7 30 30 48 69 40v23c-55 16-95-15-103-61C56-3 17-48 17-125c0-80 42-126 123-126zm0 227c63 0 89-41 89-101s-29-99-89-99c-61 0-89 39-89 99S79-25 140-24" id="t"/><path fill="#333" d="M100-194c63 0 86 42 84 106H49c0 40 14 67 53 68 26 1 43-12 49-29l28 8c-11 28-37 45-77 45C44 4 14-33 15-96c1-61 26-98 85-98zm52 81c6-60-76-77-97-28-3 7-6 17-6 28h103" id="u"/><g id="b"><use transform="matrix(0.06172839506172839,0,0,0.06172839506172839,0,0)" xlink:href="#t"/><use transform="matrix(0.06172839506172839,0,0,0.06172839506172839,17.28395061728395,0)" xlink:href="#q"/><use transform="matrix(0.06172839506172839,0,0,0.06172839506172839,29.629629629629626,0)" xlink:href="#u"/><use transform="matrix(0.06172839506172839,0,0,0.06172839506172839,41.9753086419753,0)" xlink:href="#q"/><use transform="matrix(0.06172839506172839,0,0,0.06172839506172839,54.32098765432098,0)" xlink:href="#u"/></g><path fill="#333" d="M143 4C61 4 22-44 18-125c-5-107 100-154 193-111 17 8 29 25 37 43l-32 9c-13-25-37-40-76-40-61 0-88 39-88 99 0 61 29 100 91 101 35 0 62-11 79-27v-45h-74v-28h105v86C228-13 192 4 143 4" id="v"/><path fill="#333" d="M24-231v-30h32v30H24zM24 0v-190h32V0H24" id="w"/><path fill="#333" d="M115-194c53 0 69 39 70 98 0 66-23 100-70 100C84 3 66-7 56-30L54 0H23l1-261h32v101c10-23 28-34 59-34zm-8 174c40 0 45-34 45-75 0-40-5-75-45-74-42 0-51 32-51 76 0 43 10 73 51 73" id="x"/><g id="c"><use transform="matrix(0.06172839506172839,0,0,0.06172839506172839,0,0)" xlink:href="#v"/><use transform="matrix(0.06172839506172839,0,0,0.06172839506172839,17.28395061728395,0)" xlink:href="#w"/><use transform="matrix(0.06172839506172839,0,0,0.06172839506172839,22.160493827160494,0)" xlink:href="#r"/><use transform="matrix(0.06172839506172839,0,0,0.06172839506172839,28.333333333333332,0)" xlink:href="#s"/><use transform="matrix(0.06172839506172839,0,0,0.06172839506172839,40.67901234567901,0)" xlink:href="#q"/><use transform="matrix(0.06172839506172839,0,0,0.06172839506172839,53.02469135802469,0)" xlink:href="#x"/></g><path fill="#333" d="M33 0v-248h34V0H33" id="y"/><path fill="#333" d="M117-194c89-4 53 116 60 194h-32v-121c0-31-8-49-39-48C34-167 62-67 57 0H25l-1-190h30c1 10-1 24 2 32 11-22 29-35 61-36" id="z"/><path fill="#333" d="M85-194c31 0 48 13 60 33l-1-100h32l1 261h-30c-2-10 0-23-3-31C134-8 116 4 85 4 32 4 16-35 15-94c0-66 23-100 70-100zm9 24c-40 0-46 34-46 75 0 40 6 74 45 74 42 0 51-32 51-76 0-42-9-74-50-73" id="A"/><path fill="#333" d="M141 0L90-78 38 0H4l68-98-65-92h35l48 74 47-74h35l-64 92 68 98h-35" id="B"/><g id="d"><use transform="matrix(0.06172839506172839,0,0,0.06172839506172839,0,0)" xlink:href="#y"/><use transform="matrix(0.06172839506172839,0,0,0.06172839506172839,6.172839506172839,0)" xlink:href="#z"/><use transform="matrix(0.06172839506172839,0,0,0.06172839506172839,18.51851851851852,0)" xlink:href="#A"/><use transform="matrix(0.06172839506172839,0,0,0.06172839506172839,30.864197530864196,0)" xlink:href="#u"/><use transform="matrix(0.06172839506172839,0,0,0.06172839506172839,43.20987654320987,0)" xlink:href="#B"/></g><path fill="#333" d="M190 0L58-211 59 0H30v-248h39L202-35l-2-213h31V0h-41" id="C"/><path fill="#333" d="M100-194c62-1 85 37 85 99 1 63-27 99-86 99S16-35 15-95c0-66 28-99 85-99zM99-20c44 1 53-31 53-75 0-43-8-75-51-75s-53 32-53 75 10 74 51 75" id="D"/><path fill="#333" d="M101-234c-31-9-42 10-38 44h38v23H63V0H32v-167H5v-23h27c-7-52 17-82 69-68v24" id="E"/><path fill="#333" d="M179-190L93 31C79 59 56 82 12 73V49c39 6 53-20 64-50L1-190h34L92-34l54-156h33" id="F"/><g id="e"><use transform="matrix(0.06172839506172839,0,0,0.06172839506172839,0,0)" xlink:href="#C"/><use transform="matrix(0.06172839506172839,0,0,0.06172839506172839,15.987654320987653,0)" xlink:href="#D"/><use transform="matrix(0.06172839506172839,0,0,0.06172839506172839,28.333333333333332,0)" xlink:href="#r"/><use transform="matrix(0.06172839506172839,0,0,0.06172839506172839,34.50617283950617,0)" xlink:href="#w"/><use transform="matrix(0.06172839506172839,0,0,0.06172839506172839,39.382716049382715,0)" xlink:href="#E"/><use transform="matrix(0.06172839506172839,0,0,0.06172839506172839,45.55555555555556,0)" xlink:href="#F"/></g><path fill="#333" d="M197 0v-115H63V0H30v-248h33v105h134v-105h34V0h-34" id="G"/><path fill="#333" d="M143 0L79-87 56-68V0H24v-261h32v163l83-92h37l-77 82L181 0h-38" id="H"/><path fill="#333" d="M135-143c-3-34-86-38-87 0 15 53 115 12 119 90S17 21 10-45l28-5c4 36 97 45 98 0-10-56-113-15-118-90-4-57 82-63 122-42 12 7 21 19 24 35" id="I"/><g id="f"><use transform="matrix(0.06172839506172839,0,0,0.06172839506172839,0,0)" xlink:href="#G"/><use transform="matrix(0.06172839506172839,0,0,0.06172839506172839,15.987654320987653,0)" xlink:href="#D"/><use transform="matrix(0.06172839506172839,0,0,0.06172839506172839,28.333333333333332,0)" xlink:href="#D"/><use transform="matrix(0.06172839506172839,0,0,0.06172839506172839,40.67901234567901,0)" xlink:href="#H"/><use transform="matrix(0.06172839506172839,0,0,0.06172839506172839,51.79012345679013,0)" xlink:href="#I"/></g><path fill="#333" d="M30-248c87 1 191-15 191 75 0 78-77 80-158 76V0H30v-248zm33 125c57 0 124 11 124-50 0-59-68-47-124-48v98" id="J"/><path fill="#333" d="M114-163C36-179 61-72 57 0H25l-1-190h30c1 12-1 29 2 39 6-27 23-49 58-41v29" id="K"/><path fill="#333" d="M177-190C167-65 218 103 67 71c-23-6-38-20-44-43l32-5c15 47 100 32 89-28v-30C133-14 115 1 83 1 29 1 15-40 15-95c0-56 16-97 71-98 29-1 48 16 59 35 1-10 0-23 2-32h30zM94-22c36 0 50-32 50-73 0-42-14-75-50-75-39 0-46 34-46 75s6 73 46 73" id="L"/><g id="g"><use transform="matrix(0.06172839506172839,0,0,0.06172839506172839,0,0)" xlink:href="#J"/><use transform="matrix(0.06172839506172839,0,0,0.06172839506172839,14.814814814814813,0)" xlink:href="#q"/><use transform="matrix(0.06172839506172839,0,0,0.06172839506172839,27.160493827160494,0)" xlink:href="#K"/><use transform="matrix(0.06172839506172839,0,0,0.06172839506172839,34.50617283950617,0)" xlink:href="#L"/><use transform="matrix(0.06172839506172839,0,0,0.06172839506172839,46.85185185185185,0)" xlink:href="#u"/></g><path fill="#333" d="M212-179c-10-28-35-45-73-45-59 0-87 40-87 99 0 60 29 101 89 101 43 0 62-24 78-52l27 14C228-24 195 4 139 4 59 4 22-46 18-125c-6-104 99-153 187-111 19 9 31 26 39 46" id="M"/><path fill="#333" d="M141-36C126-15 110 5 73 4 37 3 15-17 15-53c-1-64 63-63 125-63 3-35-9-54-41-54-24 1-41 7-42 31l-33-3c5-37 33-52 76-52 45 0 72 20 72 64v82c-1 20 7 32 28 27v20c-31 9-61-2-59-35zM48-53c0 20 12 33 32 33 41-3 63-29 60-74-43 2-92-5-92 41" id="N"/><path fill="#333" d="M96-169c-40 0-48 33-48 73s9 75 48 75c24 0 41-14 43-38l32 2c-6 37-31 61-74 61-59 0-76-41-82-99-10-93 101-131 147-64 4 7 5 14 7 22l-32 3c-4-21-16-35-41-35" id="O"/><g id="h"><use transform="matrix(0.06172839506172839,0,0,0.06172839506172839,0,0)" xlink:href="#M"/><use transform="matrix(0.06172839506172839,0,0,0.06172839506172839,15.987654320987653,0)" xlink:href="#N"/><use transform="matrix(0.06172839506172839,0,0,0.06172839506172839,28.333333333333332,0)" xlink:href="#O"/><use transform="matrix(0.06172839506172839,0,0,0.06172839506172839,39.44444444444444,0)" xlink:href="#s"/><use transform="matrix(0.06172839506172839,0,0,0.06172839506172839,51.79012345679012,0)" xlink:href="#u"/></g><path fill="#333" d="M185-189c-5-48-123-54-124 2 14 75 158 14 163 119 3 78-121 87-175 55-17-10-28-26-33-46l33-7c5 56 141 63 141-1 0-78-155-14-162-118-5-82 145-84 179-34 5 7 8 16 11 25" id="P"/><g id="i"><use transform="matrix(0.06172839506172839,0,0,0.06172839506172839,0,0)" xlink:href="#P"/><use transform="matrix(0.06172839506172839,0,0,0.06172839506172839,14.814814814814813,0)" xlink:href="#u"/><use transform="matrix(0.06172839506172839,0,0,0.06172839506172839,27.160493827160494,0)" xlink:href="#O"/><use transform="matrix(0.06172839506172839,0,0,0.06172839506172839,38.27160493827161,0)" xlink:href="#K"/><use transform="matrix(0.06172839506172839,0,0,0.06172839506172839,45.617283950617285,0)" xlink:href="#u"/><use transform="matrix(0.06172839506172839,0,0,0.06172839506172839,57.96296296296296,0)" xlink:href="#r"/><use transform="matrix(0.06172839506172839,0,0,0.06172839506172839,64.1358024691358,0)" xlink:href="#I"/></g><path fill="#333" d="M266 0h-40l-56-210L115 0H75L2-248h35L96-30l15-64 43-154h32l59 218 59-218h35" id="Q"/><g id="j"><use transform="matrix(0.06172839506172839,0,0,0.06172839506172839,0,0)" xlink:href="#Q"/><use transform="matrix(0.06172839506172839,0,0,0.06172839506172839,20.493827160493826,0)" xlink:href="#D"/><use transform="matrix(0.06172839506172839,0,0,0.06172839506172839,32.839506172839506,0)" xlink:href="#K"/><use transform="matrix(0.06172839506172839,0,0,0.06172839506172839,40.18518518518518,0)" xlink:href="#H"/><use transform="matrix(0.06172839506172839,0,0,0.06172839506172839,51.29629629629629,0)" xlink:href="#u"/><use transform="matrix(0.06172839506172839,0,0,0.06172839506172839,63.641975308641975,0)" xlink:href="#K"/></g><path fill="#333" d="M240 0l2-218c-23 76-54 145-80 218h-23L58-218 59 0H30v-248h44l77 211c21-75 51-140 76-211h43V0h-30" id="R"/><g id="k"><use transform="matrix(0.06172839506172839,0,0,0.06172839506172839,0,0)" xlink:href="#R"/><use transform="matrix(0.06172839506172839,0,0,0.06172839506172839,18.456790123456788,0)" xlink:href="#N"/><use transform="matrix(0.06172839506172839,0,0,0.06172839506172839,30.80246913580247,0)" xlink:href="#z"/><use transform="matrix(0.06172839506172839,0,0,0.06172839506172839,43.148148148148145,0)" xlink:href="#N"/><use transform="matrix(0.06172839506172839,0,0,0.06172839506172839,55.49382716049382,0)" xlink:href="#L"/><use transform="matrix(0.06172839506172839,0,0,0.06172839506172839,67.8395061728395,0)" xlink:href="#u"/><use transform="matrix(0.06172839506172839,0,0,0.06172839506172839,80.18518518518519,0)" xlink:href="#K"/></g><path fill="#333" d="M24 0v-261h32V0H24" id="S"/><g id="l"><use transform="matrix(0.06172839506172839,0,0,0.06172839506172839,0,0)" xlink:href="#J"/><use transform="matrix(0.06172839506172839,0,0,0.06172839506172839,14.814814814814813,0)" xlink:href="#q"/><use transform="matrix(0.06172839506172839,0,0,0.06172839506172839,27.160493827160494,0)" xlink:href="#S"/><use transform="matrix(0.06172839506172839,0,0,0.06172839506172839,32.03703703703704,0)" xlink:href="#I"/><use transform="matrix(0.06172839506172839,0,0,0.06172839506172839,43.14814814814815,0)" xlink:href="#u"/><use transform="matrix(0.06172839506172839,0,0,0.06172839506172839,55.49382716049383,0)" xlink:href="#v"/><use transform="matrix(0.06172839506172839,0,0,0.06172839506172839,72.77777777777777,0)" xlink:href="#q"/><use transform="matrix(0.06172839506172839,0,0,0.06172839506172839,85.12345679012346,0)" xlink:href="#N"/><use transform="matrix(0.06172839506172839,0,0,0.06172839506172839,97.46913580246914,0)" xlink:href="#K"/><use transform="matrix(0.06172839506172839,0,0,0.06172839506172839,104.81481481481482,0)" xlink:href="#A"/><use transform="matrix(0.06172839506172839,0,0,0.06172839506172839,117.16049382716051,0)" xlink:href="#w"/><use transform="matrix(0.06172839506172839,0,0,0.06172839506172839,122.03703703703705,0)" xlink:href="#N"/><use transform="matrix(0.06172839506172839,0,0,0.06172839506172839,134.38271604938274,0)" xlink:href="#z"/></g><g id="m"><use transform="matrix(0.06172839506172839,0,0,0.06172839506172839,0,0)" xlink:href="#J"/><use transform="matrix(0.06172839506172839,0,0,0.06172839506172839,14.814814814814813,0)" xlink:href="#q"/><use transform="matrix(0.06172839506172839,0,0,0.06172839506172839,27.160493827160494,0)" xlink:href="#S"/><use transform="matrix(0.06172839506172839,0,0,0.06172839506172839,32.03703703703704,0)" xlink:href="#I"/><use transform="matrix(0.06172839506172839,0,0,0.06172839506172839,43.14814814814815,0)" xlink:href="#u"/></g><path fill="#333" d="M16-82v-28h88v28H16" id="T"/><path fill="#333" d="M108 0H70L1-190h34L89-25l56-165h34" id="U"/><g id="n"><use transform="matrix(0.06172839506172839,0,0,0.06172839506172839,0,0)" xlink:href="#Q"/><use transform="matrix(0.06172839506172839,0,0,0.06172839506172839,20.493827160493826,0)" xlink:href="#u"/><use transform="matrix(0.06172839506172839,0,0,0.06172839506172839,32.839506172839506,0)" xlink:href="#x"/><use transform="matrix(0.06172839506172839,0,0,0.06172839506172839,45.18518518518518,0)" xlink:href="#T"/><use transform="matrix(0.06172839506172839,0,0,0.06172839506172839,52.53086419753086,0)" xlink:href="#P"/><use transform="matrix(0.06172839506172839,0,0,0.06172839506172839,67.34567901234567,0)" xlink:href="#u"/><use transform="matrix(0.06172839506172839,0,0,0.06172839506172839,79.69135802469135,0)" xlink:href="#K"/><use transform="matrix(0.06172839506172839,0,0,0.06172839506172839,87.03703703703704,0)" xlink:href="#U"/><use transform="matrix(0.06172839506172839,0,0,0.06172839506172839,98.14814814814815,0)" xlink:href="#u"/><use transform="matrix(0.06172839506172839,0,0,0.06172839506172839,110.49382716049384,0)" xlink:href="#K"/></g><path fill="#333" d="M140-251c81 0 123 46 123 126C263-46 219 4 140 4 59 4 17-45 17-125s42-126 123-126zm0 227c63 0 89-41 89-101s-29-99-89-99c-61 0-89 39-89 99S79-25 140-24" id="V"/><path fill="#333" d="M24-231v-30h32v30H24zM-9 49c24 4 33-6 33-30v-209h32V24c2 40-23 58-65 49V49" id="W"/><g id="o"><use transform="matrix(0.06172839506172839,0,0,0.06172839506172839,0,0)" xlink:href="#V"/><use transform="matrix(0.06172839506172839,0,0,0.06172839506172839,17.28395061728395,0)" xlink:href="#x"/><use transform="matrix(0.06172839506172839,0,0,0.06172839506172839,29.629629629629626,0)" xlink:href="#W"/><use transform="matrix(0.06172839506172839,0,0,0.06172839506172839,34.50617283950617,0)" xlink:href="#u"/><use transform="matrix(0.06172839506172839,0,0,0.06172839506172839,46.85185185185185,0)" xlink:href="#O"/><use transform="matrix(0.06172839506172839,0,0,0.06172839506172839,57.96296296296296,0)" xlink:href="#r"/></g></defs></g></svg>